<?xml version="1.0" encoding="UTF-8" standalone="no"?>
<!-- Created with Inkscape (http://www.inkscape.org/) -->

<svg
   version="1.1"
   id="svg2"
   xml:space="preserve"
   width="296.21332"
   height="83.853333"
   viewBox="0 0 296.21332 83.853333"
   xmlns="http://www.w3.org/2000/svg"
   xmlns:svg="http://www.w3.org/2000/svg"><defs
     id="defs6" /><g
     id="g8"
     transform="matrix(1.3333333,0,0,-1.3333333,0,83.853333)"><g
       id="g10"
       transform="scale(0.1)"><path
         d="m 1197.55,484.84 c 0,69.551 -47.56,137.047 -106.71,143.922 V 334.527 c 0,-53.57 39.85,-108.062 95.56,-108.062 7.29,0 11.15,0.051 11.15,0.051 v 263.062"
         style="fill:#231f20;fill-opacity:1;fill-rule:nonzero;stroke:none"
         id="path12" /><path
         d="m 972.668,484.84 c 0,69.551 -47.551,137.047 -106.684,143.922 V 334.527 c 0,-53.57 39.829,-108.062 95.539,-108.062 7.317,0 11.145,0.051 11.145,0.051 v 263.062"
         style="fill:#231f20;fill-opacity:1;fill-rule:nonzero;stroke:none"
         id="path14" /><path
         d="m 758.469,484.84 c 0,69.551 -47.551,137.047 -106.707,143.922 V 334.527 c 0,-53.57 39.847,-108.062 95.562,-108.062 7.289,0 11.145,0.051 11.145,0.051 v 263.062"
         style="fill:#231f20;fill-opacity:1;fill-rule:nonzero;stroke:none"
         id="path16" /><path
         d="m 534.043,484.957 c 0,69.566 -47.551,137.047 -106.699,143.934 V 334.645 c 0,-53.559 39.824,-108.051 95.531,-108.051 7.316,0 11.168,0.047 11.168,0.047 v 263.07"
         style="fill:#231f20;fill-opacity:1;fill-rule:nonzero;stroke:none"
         id="path18" /><path
         d="m 309.609,484.957 c 0,69.566 -47.546,137.047 -106.683,143.934 V 334.645 c 0,-53.559 39.832,-108.051 95.531,-108.051 7.313,0 11.152,0.047 11.152,0.047 v 263.07"
         style="fill:#231f20;fill-opacity:1;fill-rule:nonzero;stroke:none"
         id="path20" /><path
         d="M 106.699,484.957 C 106.699,554.523 59.1523,622.004 0,628.891 V 126.719 C 0,73.1367 39.8359,18.6445 95.5469,18.6445 c 7.3121,0 11.1521,0.0586 11.1521,0.0586 V 489.711"
         style="fill:#231f20;fill-opacity:1;fill-rule:nonzero;stroke:none"
         id="path22" /><path
         d="m 1366.83,486.164 v -27.25 c 0,-5.223 -4.28,-9.82 -9.36,-9.82 -4.94,0 -9.37,4.453 -9.37,9.82 v 85.766 c 0,5.793 4.8,10.722 10.43,10.722 h 19.68 c 25.18,0 34.16,-16.687 34.16,-34.859 0,-22.023 -13.4,-34.379 -34.16,-34.379 z m 0,18.906 h 11.38 c 10.06,0 15.41,4.91 15.41,15.633 0,7.735 -2.81,15.777 -15.41,15.777 h -11.38 v -31.41"
         style="fill:#231f20;fill-opacity:1;fill-rule:nonzero;stroke:none"
         id="path24" /><path
         d="m 1519.25,450.414 h -35.49 c -6.58,0 -12.48,2.531 -12.48,10.566 v 83.825 c 0,5.238 4.43,10.597 10.31,10.597 h 36.29 c 5.1,0 9.38,-4.48 9.38,-9.695 0,-5.352 -4.28,-9.242 -9.38,-9.242 h -27.85 V 512.52 h 25.31 c 4.67,0 9.26,-4.032 9.26,-9.391 0,-5.356 -4.02,-9.516 -9.26,-9.516 h -25.31 V 469.32 h 29.22 c 4.94,0 9.33,-4.16 9.33,-9.211 0,-5.371 -4.25,-9.695 -9.33,-9.695"
         style="fill:#231f20;fill-opacity:1;fill-rule:nonzero;stroke:none"
         id="path26" /><path
         d="m 1607.08,536.48 h -14.2 c -5.35,0 -9.37,4.333 -9.37,9.391 0,4.16 4.16,9.531 9.37,9.531 h 47.13 c 4.82,0 9.49,-4.179 9.49,-9.531 0,-5.058 -4.39,-9.391 -9.49,-9.391 h -14.18 v -77.851 c 0,-5.07 -4.3,-9.535 -9.37,-9.535 -5.24,0 -9.38,4.465 -9.38,9.535 v 77.851"
         style="fill:#231f20;fill-opacity:1;fill-rule:nonzero;stroke:none"
         id="path28" /><path
         d="m 1703.33,488.242 v 29.473 c 0,21.148 9.79,39.019 34.84,39.019 25.04,0 34.81,-17.871 34.81,-39.019 v -29.473 c 0,-21.746 -11.66,-39.148 -34.81,-39.148 -23.18,0 -34.84,17.402 -34.84,39.148 m 25.84,97.379 c 1.6,2.524 3.22,5.352 6.84,5.211 4.43,0 9.25,-5.359 6.3,-10.125 l -8.73,-14.297 c -1.6,-2.683 -3.2,-4.32 -6.68,-4.32 -4.41,0 -9.23,5.512 -6.15,10.277 z m -7.09,-67.906 v -29.473 c 0,-11.914 5.1,-20.238 16.09,-20.238 10.96,0 16.06,8.324 16.06,20.238 v 29.473 c 0,12.074 -4.3,20.113 -16.06,20.113 -11.79,0 -16.09,-8.039 -16.09,-20.113 m 29.86,67.906 c 1.6,2.524 3.21,5.352 6.84,5.211 4.43,0 9.22,-5.359 6.27,-10.125 l -8.69,-14.297 c -1.6,-2.683 -3.21,-4.32 -6.68,-4.32 -4.42,0 -9.24,5.512 -6.15,10.277 l 8.41,13.254"
         style="fill:#231f20;fill-opacity:1;fill-rule:nonzero;stroke:none"
         id="path30" /><path
         d="m 1853.06,458.629 c 0,-5.082 -4.3,-9.547 -9.38,-9.547 -5.23,0 -9.37,4.465 -9.37,9.547 v 86.332 c 0,5.215 4.41,10.582 10.29,10.582 h 36.29 c 5.1,0 9.37,-4.465 9.37,-9.664 0,-5.367 -4.27,-9.242 -9.37,-9.242 h -27.83 V 512.52 h 25.29 c 4.69,0 9.24,-4.024 9.24,-9.391 0,-5.356 -4.03,-9.531 -9.24,-9.531 h -25.29 v -34.969"
         style="fill:#231f20;fill-opacity:1;fill-rule:nonzero;stroke:none"
         id="path32" /><path
         d="m 1949.99,547.203 c 0,5.067 4.16,9.531 9.38,9.531 5.07,0 9.37,-4.464 9.37,-9.531 v -88.59 c 0,-5.066 -4.3,-9.531 -9.37,-9.531 -5.22,0 -9.38,4.465 -9.38,9.531 v 88.59"
         style="fill:#231f20;fill-opacity:1;fill-rule:nonzero;stroke:none"
         id="path34" /><path
         d="m 1348.1,323.844 c 0,5.066 4.16,9.531 9.37,9.531 5.08,0 9.36,-4.465 9.36,-9.531 v -88.578 c 0,-5.078 -4.28,-9.532 -9.36,-9.532 -5.21,0 -9.37,4.454 -9.37,9.532 v 88.578"
         style="fill:#231f20;fill-opacity:1;fill-rule:nonzero;stroke:none"
         id="path36" /><path
         d="m 1478.76,271.867 18.36,-30.664 c 4.41,-7.433 -2.13,-15.344 -8.18,-15.344 -3.34,0 -6.16,1.653 -7.88,4.637 l -22.5,39.145 h -9.1 v -34.094 c 0,-5.203 -4.41,-9.813 -9.53,-9.813 -4.94,0 -9.22,4.454 -9.22,9.813 v 85.773 c 0,5.801 4.67,10.707 10.18,10.707 h 23.3 c 25.16,0 33.2,-15.933 33.2,-31.562 0,-14.742 -7.09,-24.43 -18.63,-28.598 m -15.1,41.254 h -14.2 v -24.73 h 14.98 c 9.24,0 14.2,4.324 14.2,12.074 0,6.254 -2.81,12.656 -14.98,12.656"
         style="fill:#231f20;fill-opacity:1;fill-rule:nonzero;stroke:none"
         id="path38" /><path
         d="m 1556.87,264.871 v 29.496 c 0,21.137 9.78,39.008 34.82,39.008 25.06,0 34.8,-17.871 34.8,-39.008 v -29.496 c 0,-21.726 -11.64,-39.137 -34.8,-39.137 -23.18,0 -34.82,17.411 -34.82,39.137 m 18.75,29.496 v -29.496 c 0,-11.91 5.07,-20.23 16.07,-20.23 10.98,0 16.05,8.32 16.05,20.23 v 29.496 c 0,12.047 -4.27,20.102 -16.05,20.102 -11.8,0 -16.07,-8.055 -16.07,-20.102"
         style="fill:#231f20;fill-opacity:1;fill-rule:nonzero;stroke:none"
         id="path40" /><path
         d="m 1713.41,227.063 h -15.14 c -5.62,0 -10.45,4.902 -10.45,10.71 v 83.672 c 0,5.832 4.83,10.727 10.45,10.727 h 15.14 c 30.25,0 40.7,-18.449 40.7,-39.145 v -25.632 c 0,-20.981 -10.33,-40.332 -40.7,-40.332 m 21.97,65.964 c 0,11.313 -5.23,20.25 -19.69,20.25 h -9.12 v -67.308 h 9.12 c 14.73,0 19.69,9.668 19.69,21.426 v 25.632"
         style="fill:#231f20;fill-opacity:1;fill-rule:nonzero;stroke:none"
         id="path42" /><path
         d="m 1825.75,232.727 c -1.35,-4.329 -5.62,-6.993 -8.85,-6.993 -5.21,0 -9.62,3.868 -9.62,9.532 0,0.73 0.13,2.507 0.41,3.269 l 26.09,84.707 c 1.76,5.813 4.43,10.121 10.84,10.121 6.42,0 9.12,-4.164 11,-10.121 l 26.09,-84.707 c 0.29,-0.762 0.41,-2.539 0.41,-3.269 0,-5.664 -4.14,-9.532 -9.65,-9.532 -3.48,0 -7.77,2.821 -9.1,6.993 l -4.67,15.027 h -28.53 z m 21.29,57.449 c -1.21,4.347 -1.89,10 -2.42,14.609 -0.53,-4.609 -1.19,-10.262 -2.4,-14.609 l -7.09,-25.457 h 18.73 l -6.82,25.457"
         style="fill:#231f20;fill-opacity:1;fill-rule:nonzero;stroke:none"
         id="path44" /><path
         d="m 1987.24,227.063 h -37.76 c -5.35,0 -10.06,4.453 -10.06,10.273 v 86.492 c 0,5.082 4.14,9.547 9.38,9.547 5.1,0 9.37,-4.465 9.37,-9.547 v -78.015 h 29.07 c 4.82,0 9.1,-4.004 9.1,-9.219 0,-5.371 -4.01,-9.531 -9.1,-9.531"
         style="fill:#231f20;fill-opacity:1;fill-rule:nonzero;stroke:none"
         id="path46" /><path
         d="m 2139.78,235.109 c 0,-5.078 -4.3,-9.375 -9.26,-9.375 -5.08,0 -9.49,4.297 -9.49,9.375 v 51.211 l -15.26,-33.332 c -1.76,-3.894 -5.12,-5.683 -8.85,-5.683 -3.61,0 -6.95,1.789 -8.69,5.683 l -15.27,33.332 v -51.211 c 0,-5.078 -4.42,-9.375 -9.65,-9.375 -5.1,0 -9.08,4.297 -9.08,9.375 v 88.43 c 0,5.66 4.14,9.824 9.63,9.824 4.26,0 7.63,-1.925 9.35,-5.8 l 23.83,-52.551 23.87,52.691 c 1.85,4.336 5.47,5.66 9.22,5.66 5.49,0 9.65,-4.465 9.65,-9.824 v -88.43"
         style="fill:#231f20;fill-opacity:1;fill-rule:nonzero;stroke:none"
         id="path48" /><path
         d="m 2202.84,323.844 c 0,5.066 4.14,9.531 9.38,9.531 5.09,0 9.37,-4.465 9.37,-9.531 v -88.578 c 0,-5.078 -4.28,-9.532 -9.37,-9.532 -5.24,0 -9.38,4.454 -9.38,9.532 v 88.578"
         style="fill:#231f20;fill-opacity:1;fill-rule:nonzero;stroke:none"
         id="path50" /><path
         d="m 1433.64,9.375 c 0,-5.07812 -4.26,-9.375 -9.24,-9.375 -5.07,0 -9.49,4.29688 -9.49,9.375 v 51.2227 l -15.27,-33.3594 c -1.72,-3.8789 -5.1,-5.6563 -8.85,-5.6563 -3.61,0 -6.95,1.7774 -8.69,5.6563 l -15.27,33.3594 V 9.375 c 0,-5.07812 -4.42,-9.375 -9.63,-9.375 -5.1,0 -9.1,4.29688 -9.1,9.375 v 88.4297 c 0,5.6643 4.14,9.8243 9.62,9.8243 4.3,0 7.66,-1.934 9.38,-5.813 l 23.83,-52.5582 23.85,52.7152 c 1.85,4.347 5.46,5.656 9.21,5.656 5.51,0 9.65,-4.453 9.65,-9.8243 V 9.375"
         style="fill:#231f20;fill-opacity:1;fill-rule:nonzero;stroke:none"
         id="path52" /><path
         d="m 1529.66,0 c -21.56,0 -33.6,15.7617 -33.6,37.0508 v 60.7539 c 0,5.6643 4.15,9.8513 9.5,9.8513 4.94,0 9.25,-4.48 9.25,-9.8513 V 37.0508 c 0,-10.7031 4.67,-18.1445 14.85,-18.1445 10.06,0 14.72,7.5703 14.72,18.1445 v 60.7539 c 0,5.2153 4.03,9.8513 9.26,9.8513 5.49,0 9.63,-4.636 9.63,-9.8513 V 37.0508 C 1563.27,15.6367 1550.83,0 1529.66,0 m 4.71,136.828 1.05,1.18 c 1.6,1.777 2.54,2.82 5.51,2.82 3.06,0 6.56,-3.113 6.56,-7.273 0,-1.211 -0.29,-2.696 -1.21,-4.168 l -11,-12.227 c -1.99,-1.933 -3.08,-3.117 -6.01,-3.117 -3.75,0 -6.84,2.961 -6.84,7.277 0,1.493 0.28,2.567 1.08,3.719 l 10.86,11.789"
         style="fill:#231f20;fill-opacity:1;fill-rule:nonzero;stroke:none"
         id="path54" /><path
         d="m 1676.57,1.33984 h -45.94 c -5.48,0 -9.62,4.60938 -9.62,10.10546 0,1.9336 1.21,5.0781 1.85,6.543 13.13,24.1523 24.65,44.6758 37.91,69.082 h -30.25 c -5.26,0 -9.26,4.1914 -9.26,9.5625 0,5.2032 4,9.6562 9.26,9.6562 h 45.37 c 5.62,0 9.78,-4.453 9.78,-9.9687 0,-2.6758 -0.93,-4.7656 -1.89,-6.3984 l -38.15,-69.3946 h 30.94 c 4.94,0 9.38,-4.1601 9.38,-9.5312 0,-5.33985 -4.3,-9.65626 -9.38,-9.65626"
         style="fill:#231f20;fill-opacity:1;fill-rule:nonzero;stroke:none"
         id="path56" /><path
         d="m 1792.26,1.33984 h -35.49 c -6.56,0 -12.44,2.50782 -12.44,10.54686 v 83.8281 c 0,5.2152 4.43,10.5742 10.29,10.5742 h 36.27 c 5.12,0 9.41,-4.453 9.41,-9.6562 0,-5.3711 -4.29,-9.25 -9.41,-9.25 h -27.83 V 63.4297 h 25.31 c 4.69,0 9.24,-4.0352 9.24,-9.4063 0,-5.3398 -4.01,-9.5 -9.24,-9.5 h -25.31 V 20.2461 h 29.2 c 4.96,0 9.37,-4.1914 9.37,-9.25 0,-5.33985 -4.3,-9.65626 -9.37,-9.65626"
         style="fill:#231f20;fill-opacity:1;fill-rule:nonzero;stroke:none"
         id="path58" /><path
         d="m 1892.57,0 c -21.56,0 -33.63,15.7617 -33.63,37.0508 v 60.7539 c 0,5.6643 4.16,9.8513 9.53,9.8513 4.94,0 9.22,-4.48 9.22,-9.8513 V 37.0508 c 0,-10.7031 4.7,-18.1445 14.88,-18.1445 10.02,0 14.69,7.5703 14.69,18.1445 v 60.7539 c 0,5.2153 4.04,9.8513 9.25,9.8513 5.51,0 9.65,-4.636 9.65,-9.8513 V 37.0508 C 1926.16,15.6367 1913.7,0 1892.57,0"
         style="fill:#231f20;fill-opacity:1;fill-rule:nonzero;stroke:none"
         id="path60" /><path
         d="m 2073.9,9.375 c 0,-5.07812 -4.3,-9.375 -9.26,-9.375 -5.1,0 -9.49,4.29688 -9.49,9.375 v 51.2227 l -15.28,-33.3594 c -1.74,-3.8789 -5.09,-5.6563 -8.83,-5.6563 -3.61,0 -6.97,1.7774 -8.71,5.6563 l -15.27,33.3594 V 9.375 c 0,-5.07812 -4.43,-9.375 -9.67,-9.375 -5.08,0 -9.08,4.29688 -9.08,9.375 v 88.4297 c 0,5.6643 4.14,9.8243 9.65,9.8243 4.28,0 7.62,-1.934 9.33,-5.813 l 23.87,-52.5582 23.83,52.7152 c 1.89,4.347 5.51,5.656 9.26,5.656 5.47,0 9.65,-4.453 9.65,-9.8243 V 9.375"
         style="fill:#231f20;fill-opacity:1;fill-rule:nonzero;stroke:none"
         id="path62" /></g></g></svg>
